<svg width="200" height="200" viewBox="0 0 72 72" fill="none" xmlns="http://www.w3.org/2000/svg">
<path d="M7 24C7 28.5035 8.4885 32.6593 11.0003 36.0024L10.9947 36.0051C8.4863 39.3469 7 43.4999 7 48C12.7457 47.0402 17.2971 43.4039 18.6138 38.7566L18.6204 38.7509C21.0555 44.0525 30.375 48 41.5 48C54.4787 48 65 42.6274 65 36C65 29.3726 54.4787 24 41.5 24C30.373 24 21.0522 27.9489 18.6191 33.252L18.628 33.2562C17.3466 28.6438 12.8817 25.0183 7.2187 24" fill="#FF74C2"/>
<path d="M33.5741 47.3004C36.0503 47.7533 38.7187 48 41.5 48C54.4787 48 65 42.6274 65 36C65 30.5461 57.8747 25.9419 48.1182 24.4825L33.5741 47.3004Z" fill="#F57170"/>
<path d="M7 24C7 28.5035 8.4885 32.6593 11.0003 36.0024L10.9947 36.0051C8.4863 39.3469 7 43.4999 7 48C12.7457 47.0402 17.2971 43.4039 18.6138 38.7566L18.6204 38.7509C21.0555 44.0525 30.375 48 41.5 48C54.4787 48 65 42.6274 65 36C65 29.3726 54.4787 24 41.5 24C30.373 24 21.0522 27.9489 18.6191 33.252L18.628 33.2562C17.3466 28.6438 12.8817 25.0183 7.2187 24" stroke="#151515" stroke-width="2" stroke-miterlimit="10" stroke-linecap="round" stroke-linejoin="round"/>
<path d="M53 36C54.1046 36 55 35.1046 55 34C55 32.8954 54.1046 32 53 32C51.8954 32 51 32.8954 51 34C51 35.1046 51.8954 36 53 36Z" fill="black"/>
</svg>
